<svg xmlns="http://www.w3.org/2000/svg" width="1024" height="1024" viewBox="0 0 1024 1024">
<g>
<path d="M 353.50 880.45 C293.38,870.66 250.00,821.73 250.00,763.72 C250.00,744.01 253.66,728.82 262.96,709.94 C280.12,675.10 313.86,644.53 358.41,623.47 C374.00,616.10 400.07,607.04 405.78,607.01 C409.47,606.99 409.60,609.84 406.22,616.42 C399.93,628.65 395.07,640.11 392.97,647.71 C391.78,652.00 390.40,655.93 389.90,656.45 C389.41,656.97 389.00,659.67 389.01,662.45 L 389.01 667.50 L 393.51 659.63 C399.97,648.31 403.80,643.43 413.44,634.17 C426.82,621.33 442.90,612.02 463.58,605.17 C473.94,601.73 486.60,598.91 488.48,599.63 C489.17,599.90 490.03,602.18 490.37,604.70 C491.40,612.20 491.05,759.48 489.98,772.48 C487.11,807.05 470.36,837.07 442.46,857.63 C416.88,876.48 382.81,885.22 353.50,880.45 ZM 392.50 872.33 C416.92,867.78 442.60,852.31 458.67,832.46 C466.49,822.81 474.49,808.43 477.86,798.00 C483.54,780.42 483.32,784.28 483.72,693.09 C483.93,644.96 483.71,608.31 483.20,607.80 C482.69,607.29 478.78,607.95 473.91,609.36 C433.61,621.09 409.28,640.96 393.23,675.25 C389.66,682.86 388.80,684.00 386.60,684.00 C377.13,684.00 380.97,651.81 393.49,626.12 C396.01,620.95 397.84,616.50 397.56,616.23 C396.26,614.92 370.03,625.51 353.14,634.16 C303.99,659.32 270.56,696.41 259.90,737.60 C257.97,745.06 257.60,749.09 257.58,762.50 C257.57,772.32 258.08,780.82 258.90,784.50 C266.42,818.08 286.72,844.75 317.00,860.80 C340.76,873.41 366.03,877.26 392.50,872.33 Z" fill="rgba(234,129,31,1)"/>
</g>
</svg>